<?xml version="1.0" encoding="utf-8"?>
<svg width="116px" height="23px" viewBox="0 0 116 23" version="1.1" xmlns="http://www.w3.org/2000/svg">
  <title>Group 8</title>
  <desc>Created with Sketch.</desc>
  <g id="Symbols" stroke="none" stroke-width="1" fill="none" fill-rule="evenodd">
    <g id="Navigation/nav-bar" transform="translate(-36.000000, -19.000000)" fill="#282E3D">
      <g id="Group-8">
        <g transform="translate(36.000000, 19.000000)">
          <path d="M 37.646 23 L 30.817 13.132 L 27.255 18.274 C 32.29 16.954 34.182 16.586 32.931 17.17 C 31.64 17.773 30.037 18.369 28.085 19.63 C 26.28 20.771 25.005 21.894 24.262 23 L 20.317 23 L 30.817 8 L 41.317 23 L 37.646 23 Z" id="Path-2-Copy-2"/>
          <path d="M 47.929 21.149 L 55.46 21.148 C 56.469 21.102 57.224 21.199 57.696 21.535 C 58.211 21.751 58.405 22.346 58.385 23.076 L 58.384 23 C 58.384 23 50.378 23 44.178 23 L 44.178 8 L 47.041 8 L 47.041 21.149 L 47.929 21.149 Z" id="Path-3-Copy-12" style="stroke-opacity: 0.35; stroke-linejoin: round;"/>
          <polygon id="Path-3-Copy-15" points="100 15 100 17 106.687912 17 116 17 116 15 104.716007 15"/>
          <path d="M116,15 L116,23 L100.002974,23 C99.9347983,21.5739839 101.03867,20.9157597 103.31459,21.0253274 L112.777202,21.0253274 L112.777202,15 L116,15 Z" id="Path-3-Copy-10"/>
          <path d="M100,16 L100,8 L104.570347,8 L115.997026,8 C116.065202,9.42601613 114.96133,10.0842403 112.68541,9.97467261 L103.222798,9.97467261 L103.222798,16 L100,16 Z" id="Path-3-Copy-8"/>
          <g transform="matrix(1, 0, 0, 1, -0.428184, 0)">
            <polygon id="Path-3-Copy-18" points="84 8 84 16 81 16 81 8"/>
            <polygon id="Path-3-Copy-17" points="81 15 81 17 87.688 17 97 17 97 15 85.716 15"/>
            <path d="M 97 8 L 97 23 L 81.003 23 C 80.935 21.663 82.039 21.046 84.315 21.149 L 93.777 21.149 L 93.777 8 L 97 8 Z" id="Path-3-Copy-7"/>
          </g>
          <g transform="matrix(1, 0, 0, 1, -1.645842, 0)">
            <polygon id="Path-3-Copy-15" points="62.562 14.993 62.566 17 69.188 17 78.5 17 78.5 15 67.216 15"/>
            <path d="M 78.5 15 L 78.5 23 L 62.503 23 C 62.435 21.574 63.539 20.916 65.815 21.025 L 75.277 21.025 L 75.277 15 L 78.5 15 Z" id="Path-3-Copy-10"/>
            <path d="M 62.562 15.129 L 62.5 8 L 67.07 8 L 78.497 8 C 78.565 9.426 77.461 10.084 75.185 9.975 L 65.723 9.975 L 65.723 14.999 L 62.562 15.129 Z" id="Path-3-Copy-8" style="stroke-linejoin: round; stroke-width: 7px;"/>
          </g>
          <path d="M 59 4.5 L 82.303 4.5 L 81.993 7.833 C 81.846 9.408 80.878 11.755 79.513 12.569 C 78.408 13.228 76.688 13.509 75.185 13.475 L 69.223 13.475 L 69.223 19.5 L 59 19.5 Z M 74.935 8.19 L 62.5 12.5 L 65.723 12.5 C 65.723 12.5 74.084 8.552 74.935 8.19 Z" style="fill: none;"/>
          <path d="M 59 4.5 L 82.303 4.5 L 81.993 7.833 C 81.846 9.408 80.878 11.755 79.513 12.569 C 78.408 13.228 76.688 13.509 75.185 13.475 L 69.223 13.475 L 69.223 19.5 L 59 19.5 Z M 74.935 8.19 L 62.5 12.5 L 65.723 12.5 C 65.723 12.5 74.084 8.552 74.935 8.19 Z" style="fill: none;"/>
          <g id="1Wj_OdW5p2XR5myntx-Sk" transform="matrix(-0.479243, 0, 0, 0.479243, 15.127616, 11.559427)" style="">
            <path style="stroke: none; stroke-width: 1; stroke-dasharray: none; stroke-linecap: butt; stroke-dashoffset: 0; stroke-linejoin: miter; stroke-miterlimit: 4; fill: rgb(40,46,61); fill-rule: evenodd; opacity: 1;" vector-effect="non-scaling-stroke" transform=" translate(-31.5, -23.96)" d="M 51.98739 0 L 31.499999999999996 31.52316 L 20.814609999999995 15.09551 C 35.91923 19.31417 41.59464 20.49017 37.840849999999996 18.62352 C 33.967639999999996 16.69748 29.160859999999996 14.792219999999999 23.304149999999996 10.76427 C 17.888129999999997 7.120329999999999 14.064819999999996 3.53224 11.834229999999996 0 L 0.000009999999996068709 0 L 31.500009999999996 47.91667 L 63.000009999999996 0 z" stroke-linecap="round"/>
          </g>
        </g>
      </g>
    </g>
  </g>
</svg>